<?xml version="1.0" encoding="UTF-8" standalone="no"?>
<svg width="20px" height="20px" viewBox="0 0 20 20" version="1.1" xmlns="http://www.w3.org/2000/svg" xmlns:xlink="http://www.w3.org/1999/xlink">
    <!-- Generator: Sketch 3.8.3 (29802) - http://www.bohemiancoding.com/sketch -->
    <title>user</title>
    <desc>Created with Sketch.</desc>
    <defs></defs>
    <g id="Symbols" stroke="none" stroke-width="1" fill="none" fill-rule="evenodd">
        <g id="user" fill="#4A4A4A">
            <g id="Group" transform="translate(3.000000, 1.000000)">
                <path d="M7,8 C9.209139,8 11,6.209139 11,4 C11,1.790861 9.209139,0 7,0 C4.790861,0 3,1.790861 3,4 C3,6.209139 4.790861,8 7,8 L7,8 Z M7,6 C5.8954305,6 5,5.1045695 5,4 C5,2.8954305 5.8954305,2 7,2 C8.1045695,2 9,2.8954305 9,4 C9,5.1045695 8.1045695,6 7,6 L7,6 Z" id="Oval-1"></path>
                <path d="M14,15.6568542 C14,11.9667791 10.8532556,9 7,9 C3.1467444,9 0,11.9667791 0,15.6568542 C0,20.1143819 14,20.1143819 14,15.6568542 L14,15.6568542 Z M12,15.6568542 C12,16.2490485 9.83670187,17 7,17 C4.16329813,17 2,16.2490485 2,15.6568542 C2,13.0985408 4.2258386,11 7,11 C9.7741614,11 12,13.0985408 12,15.6568542 L12,15.6568542 Z" id="Oval-2"></path>
            </g>
        </g>
    </g>
</svg>